<?xml version="1.0" encoding="UTF-8"?>

<svg version="1.1" xmlns="http://www.w3.org/2000/svg" xmlns:xlink="http://www.w3.org/1999/xlink">
    
    <symbol viewBox="0 0 11 6" id="dropdown-arrow" xmlns="http://www.w3.org/2000/svg">
        <path d="M4.95544 5.78413L0.225765 1.25827C-0.0752554 0.970375 -0.0752554 0.503596 0.225765 0.215836C0.526517 -0.0719461 1.01431 -0.0719461 1.31504 0.215836L5.50008 4.22052L9.68498 0.215953C9.98585 -0.0718293 10.4736 -0.0718293 10.7743 0.215953C11.0752 0.503736 11.0752 0.970491 10.7743 1.25839L6.04459 5.78424C5.89414 5.92814 5.69717 6 5.5001 6C5.30294 6 5.10582 5.928 4.95544 5.78413Z" fill="currentColor"/>
    </symbol>

    <symbol viewBox="0 0 19 17" id="telegram" xmlns="http://www.w3.org/2000/svg">
        <path d="M19 0.602225L15.9946 16.2923C15.9946 16.2923 15.5741 17.3801 14.4189 16.8584L7.48458 11.3526L7.45242 11.3364C8.38909 10.4654 15.6524 3.70266 15.9698 3.39612C16.4613 2.92136 16.1562 2.63873 15.5856 2.99736L4.85679 10.053L0.717638 8.61077C0.717638 8.61077 0.0662573 8.37083 0.00359284 7.84911C-0.0598962 7.32653 0.739076 7.0439 0.739076 7.0439L17.6131 0.188948C17.6131 0.188948 19 -0.44207 19 0.602225Z" fill="currentColor"/>
    </symbol>

    <symbol viewBox="0 0 12 23" id="facebook" xmlns="http://www.w3.org/2000/svg">
        <path d="M7.65708 12.3648H11.3793L11.9637 8.56055H7.65632V6.48134C7.65632 4.90099 8.16957 3.49962 9.63891 3.49962H12V0.179741C11.5852 0.123382 10.7078 0 9.04996 0C5.58819 0 3.55867 1.8393 3.55867 6.0297V8.56055H0V12.3648H3.55867V22.821C4.26344 22.9276 4.97729 23 5.71007 23C6.37245 23 7.01893 22.9391 7.65708 22.8522V12.3648Z" fill="currentColor" />
    </symbol>

    <symbol viewBox="0 0 20 20" id="instagram" xmlns="http://www.w3.org/2000/svg">
        <path d="M10 1.80723C12.6506 1.80723 13.0121 1.80723 14.0964 1.80723C15.0602 1.80723 15.5422 2.04819 15.9036 2.16868C16.3855 2.40964 16.747 2.53012 17.1084 2.89157C17.4699 3.25301 17.7108 3.61446 17.8313 4.09639C17.9518 4.45783 18.0723 4.93976 18.1928 5.90362C18.1928 6.98795 18.1928 7.22892 18.1928 10C18.1928 12.7711 18.1928 13.0121 18.1928 14.0964C18.1928 15.0602 17.9518 15.5422 17.8313 15.9036C17.5904 16.3855 17.4699 16.747 17.1084 17.1084C16.747 17.4699 16.3855 17.7108 15.9036 17.8313C15.5422 17.9518 15.0602 18.0723 14.0964 18.1928C13.0121 18.1928 12.7711 18.1928 10 18.1928C7.22892 18.1928 6.98795 18.1928 5.90362 18.1928C4.93976 18.1928 4.45783 17.9518 4.09639 17.8313C3.61446 17.5904 3.25301 17.4699 2.89157 17.1084C2.53012 16.747 2.28916 16.3855 2.16868 15.9036C2.04819 15.5422 1.92771 15.0602 1.80723 14.0964C1.80723 13.0121 1.80723 12.7711 1.80723 10C1.80723 7.22892 1.80723 6.98795 1.80723 5.90362C1.80723 4.93976 2.04819 4.45783 2.16868 4.09639C2.40964 3.61446 2.53012 3.25301 2.89157 2.89157C3.25301 2.53012 3.61446 2.28916 4.09639 2.16868C4.45783 2.04819 4.93976 1.92771 5.90362 1.80723C6.98795 1.80723 7.3494 1.80723 10 1.80723ZM10 0C7.22892 0 6.98795 0 5.90362 0C4.81928 0 4.09639 0.240965 3.49398 0.481928C2.89157 0.722892 2.28916 1.08434 1.68675 1.68675C1.08434 2.28916 0.843374 2.77109 0.481928 3.49398C0.240965 4.09639 0.120482 4.81928 0 5.90362C0 6.98795 0 7.3494 0 10C0 12.7711 0 13.0121 0 14.0964C0 15.1807 0.240965 15.9036 0.481928 16.506C0.722892 17.1084 1.08434 17.7108 1.68675 18.3133C2.28916 18.9157 2.77109 19.1566 3.49398 19.5181C4.09639 19.759 4.81928 19.8795 5.90362 20C6.98795 20 7.3494 20 10 20C12.6506 20 13.0121 20 14.0964 20C15.1807 20 15.9036 19.759 16.506 19.5181C17.1084 19.2771 17.7108 18.9157 18.3133 18.3133C18.9157 17.7108 19.1566 17.2289 19.5181 16.506C19.759 15.9036 19.8795 15.1807 20 14.0964C20 13.0121 20 12.6506 20 10C20 7.3494 20 6.98795 20 5.90362C20 4.81928 19.759 4.09639 19.5181 3.49398C19.2771 2.89157 18.9157 2.28916 18.3133 1.68675C17.7108 1.08434 17.2289 0.843374 16.506 0.481928C15.9036 0.240965 15.1807 0.120482 14.0964 0C13.0121 0 12.7711 0 10 0Z" fill="currentColor"/>
        <path d="M10 4.81928C7.10843 4.81928 4.81928 7.10843 4.81928 10C4.81928 12.8916 7.10843 15.1807 10 15.1807C12.8916 15.1807 15.1807 12.8916 15.1807 10C15.1807 7.10843 12.8916 4.81928 10 4.81928ZM10 13.3735C8.19277 13.3735 6.62651 11.9277 6.62651 10C6.62651 8.19277 8.07229 6.62651 10 6.62651C11.8072 6.62651 13.3735 8.07229 13.3735 10C13.3735 11.8072 11.8072 13.3735 10 13.3735Z" fill="currentColor"/>
        <path d="M15.3012 5.90362C15.9666 5.90362 16.506 5.3642 16.506 4.6988C16.506 4.03339 15.9666 3.49398 15.3012 3.49398C14.6358 3.49398 14.0964 4.03339 14.0964 4.6988C14.0964 5.3642 14.6358 5.90362 15.3012 5.90362Z" fill="currentColor"/>
    </symbol>

    <symbol viewBox="0 0 15 17" id="paypal" xmlns="http://www.w3.org/2000/svg">
        <path fill-rule="evenodd" clip-rule="evenodd" d="M4.57106 16.4423L4.85153 14.6009L4.22673 14.5858H1.24316L3.31664 0.997231C3.3231 0.956083 3.34398 0.917885 3.37447 0.890712C3.40512 0.863539 3.44418 0.848633 3.48504 0.848633H8.51579C10.186 0.848633 11.3386 1.20778 11.9403 1.91677C12.2224 2.24937 12.4021 2.59703 12.4891 2.97947C12.5803 3.38086 12.5818 3.86035 12.4928 4.44527L12.4864 4.48781V4.86265L12.7685 5.02786C13.006 5.15814 13.1949 5.3072 13.3397 5.47785C13.5809 5.76231 13.737 6.12379 13.803 6.5522C13.8712 6.99287 13.8487 7.51738 13.737 8.11116C13.6083 8.79406 13.4002 9.38892 13.1191 9.87555C12.8607 10.324 12.5314 10.696 12.1404 10.9842C11.7671 11.2581 11.3236 11.466 10.8221 11.5991C10.3361 11.7298 9.78208 11.7958 9.1744 11.7958H8.7829C8.50302 11.7958 8.23111 11.9 8.01763 12.0868C7.80355 12.2775 7.66203 12.538 7.61862 12.823L7.58902 12.9888L7.09341 16.2345L7.07103 16.3536C7.06502 16.3914 7.05481 16.4101 7.03978 16.4229C7.02641 16.4345 7.00718 16.4423 6.9884 16.4423H4.57106" fill="#28356A" style="fill:#28356A;fill:color(display-p3 0.1557 0.2083 0.4152);fill-opacity:1;"/>
        <path fill-rule="evenodd" clip-rule="evenodd" d="M13.0355 4.53125C13.0206 4.63047 13.0033 4.73187 12.9841 4.83605C12.3207 8.35676 10.0509 9.57303 7.15203 9.57303H5.67602C5.32148 9.57303 5.02267 9.83901 4.96754 10.2005L3.99781 16.5582C3.9619 16.7956 4.13887 17.0095 4.37053 17.0095H6.98843C7.29836 17.0095 7.56171 16.7767 7.61054 16.4607L7.63622 16.3233L8.12913 13.0903L8.16083 12.913C8.20905 12.5959 8.47301 12.363 8.78293 12.363H9.17443C11.7108 12.363 13.6964 11.2988 14.2767 8.21872C14.519 6.93211 14.3936 5.85776 13.7521 5.1022C13.558 4.87441 13.3172 4.68528 13.0355 4.53125" fill="#298FC2" style="fill:#298FC2;fill:color(display-p3 0.1601 0.5617 0.7623);fill-opacity:1;"/>
        <path fill-rule="evenodd" clip-rule="evenodd" d="M12.3413 4.24513C12.2399 4.21455 12.1354 4.18691 12.0281 4.16191C11.9202 4.13753 11.8098 4.11595 11.6961 4.097C11.2981 4.03054 10.862 3.99902 10.3949 3.99902H6.45186C6.35466 3.99902 6.26242 4.02169 6.17994 4.06269C5.99801 4.15306 5.86296 4.331 5.83021 4.54885L4.99132 10.0403L4.96729 10.2004C5.02242 9.83891 5.32123 9.57293 5.67577 9.57293H7.15178C10.0506 9.57293 12.3204 8.35604 12.9839 4.83596C13.0037 4.73177 13.0204 4.63037 13.0352 4.53115C12.8674 4.43907 12.6856 4.36035 12.4899 4.29327C12.4415 4.27666 12.3916 4.26066 12.3413 4.24513" fill="#22284F" style="fill:#22284F;fill:color(display-p3 0.1349 0.1581 0.3101);fill-opacity:1;"/>
        <path fill-rule="evenodd" clip-rule="evenodd" d="M5.83061 4.54914C5.86336 4.33129 5.99842 4.15334 6.18035 4.06359C6.26342 4.02244 6.35506 3.99977 6.45226 3.99977H10.3953C10.8624 3.99977 11.2985 4.03145 11.6965 4.09791C11.8102 4.1167 11.9206 4.13844 12.0285 4.16281C12.1358 4.18766 12.2403 4.21545 12.3417 4.24589C12.3921 4.26141 12.4419 4.27756 12.4908 4.29356C12.6865 4.36063 12.8684 4.43998 13.0362 4.53144C13.2336 3.23039 13.0346 2.34454 12.354 1.54239C11.6036 0.659189 10.2495 0.28125 8.51657 0.28125H3.48567C3.13173 0.28125 2.82977 0.547236 2.77509 0.909337L0.679679 14.6377C0.638366 14.9092 0.841026 15.1543 1.10603 15.1543H4.21188L5.83061 4.54914" fill="#28356A" style="fill:#28356A;fill:color(display-p3 0.1557 0.2083 0.4152);fill-opacity:1;"/>
    </symbol>

    <symbol viewBox="0 0 31 11" id="visa" xmlns="http://www.w3.org/2000/svg">
        <path fill-rule="evenodd" clip-rule="evenodd" d="M7.92535 10.1514H5.308L3.34531 2.44338C3.25215 2.08882 3.05435 1.77536 2.76339 1.62762C2.03727 1.25635 1.23713 0.960877 0.364258 0.811855V0.515096H4.5806C5.16252 0.515096 5.59896 0.960877 5.6717 1.4786L6.69005 7.03865L9.30613 0.515096H11.8507L7.92535 10.1514ZM13.3053 10.1514H10.8334L12.8688 0.515096H15.3407L13.3053 10.1514ZM18.5387 3.18476C18.6115 2.66575 19.0479 2.36899 19.5571 2.36899C20.3572 2.29448 21.2288 2.44351 21.9562 2.81349L22.3927 0.738749C21.6653 0.44199 20.8651 0.292969 20.139 0.292969C17.7399 0.292969 15.9941 1.62774 15.9941 3.48023C15.9941 4.88952 17.2307 5.62948 18.1036 6.07526C19.0479 6.51976 19.4116 6.81652 19.3389 7.26102C19.3389 7.92776 18.6115 8.22452 17.8853 8.22452C17.0125 8.22452 16.1396 8.00227 15.3407 7.631L14.9043 9.70703C15.7772 10.077 16.7215 10.226 17.5944 10.226C20.2845 10.2993 21.9562 8.96577 21.9562 6.96426C21.9562 4.44373 18.5387 4.296 18.5387 3.18476V3.18476ZM30.6076 10.1514L28.6449 0.515096H26.5367C26.1003 0.515096 25.6639 0.811855 25.5184 1.25635L21.8839 10.1514H24.4286L24.9365 8.7434H28.063L28.3539 10.1514H30.6076ZM26.8999 3.10989L27.6261 6.74165H25.5906L26.8999 3.10989Z" fill="#172B85" style="fill:#172B85;fill:color(display-p3 0.0902 0.1686 0.5216);fill-opacity:1;"/>
    </symbol>

    <symbol viewBox="0 0 29 18" id="mastercard" xmlns="http://www.w3.org/2000/svg">
        <path fill-rule="evenodd" clip-rule="evenodd" d="M14.3595 15.3865C12.8549 16.6546 10.9033 17.4202 8.77064 17.4202C4.01197 17.4202 0.154297 13.6084 0.154297 8.90639C0.154297 4.20434 4.01197 0.392578 8.77064 0.392578C10.9033 0.392578 12.8549 1.15814 14.3595 2.42632C15.8641 1.15814 17.8157 0.392578 19.9484 0.392578C24.707 0.392578 28.5647 4.20434 28.5647 8.90639C28.5647 13.6084 24.707 17.4202 19.9484 17.4202C17.8157 17.4202 15.8641 16.6546 14.3595 15.3865Z" fill="#ED0006" style="fill:#ED0006;fill:color(display-p3 0.9294 0.0000 0.0235);fill-opacity:1;"/>
        <path fill-rule="evenodd" clip-rule="evenodd" d="M14.3599 15.3862C16.2124 13.8246 17.387 11.501 17.387 8.90639C17.387 6.31173 16.2124 3.98817 14.3599 2.42658C15.8645 1.15825 17.8163 0.392578 19.949 0.392578C24.7077 0.392578 28.5654 4.20434 28.5654 8.90639C28.5654 13.6084 24.7077 17.4202 19.949 17.4202C17.8163 17.4202 15.8645 16.6545 14.3599 15.3862Z" fill="#F9A000" style="fill:#F9A000;fill:color(display-p3 0.9765 0.6275 0.0000);fill-opacity:1;"/>
        <path fill-rule="evenodd" clip-rule="evenodd" d="M14.3595 15.3859C16.2122 13.8243 17.387 11.5007 17.387 8.90586C17.387 6.31105 16.2122 3.98737 14.3595 2.42578C12.5068 3.98737 11.332 6.31105 11.332 8.90586C11.332 11.5007 12.5068 13.8243 14.3595 15.3859Z" fill="#FF5E00" style="fill:#FF5E00;fill:color(display-p3 1.0000 0.3686 0.0000);fill-opacity:1;"/>
    </symbol>

    <symbol viewBox="0 0 32 15" id="apple-pay" xmlns="http://www.w3.org/2000/svg">
        <path fill-rule="evenodd" clip-rule="evenodd" d="M5.80271 2.60131C5.44007 3.04847 4.85985 3.40116 4.27962 3.35078C4.2071 2.74616 4.49116 2.10376 4.82358 1.70698C5.18622 1.24722 5.82084 0.919724 6.33459 0.894531C6.39503 1.52434 6.15931 2.14155 5.80271 2.60131ZM6.3284 3.47026C5.81723 3.43961 5.35081 3.63045 4.97407 3.78461C4.73163 3.88381 4.52633 3.96781 4.37014 3.96781C4.19486 3.96781 3.98108 3.87931 3.74106 3.77995C3.42655 3.64976 3.06698 3.50091 2.68991 3.50805C1.82561 3.52065 1.02176 4.03079 0.580549 4.84324C-0.326051 6.46814 0.344833 8.874 1.22121 10.1966C1.65034 10.8516 2.16408 11.5696 2.84101 11.5444C3.13881 11.5327 3.35304 11.4379 3.57474 11.3399C3.82998 11.2271 4.09513 11.1098 4.50915 11.1098C4.90881 11.1098 5.16237 11.224 5.40577 11.3336C5.6372 11.4378 5.85945 11.5379 6.18938 11.5318C6.89049 11.5192 7.3317 10.8768 7.76082 10.2218C8.22392 9.51879 8.42743 8.83271 8.45831 8.72859L8.46193 8.71655C8.46119 8.71578 8.45547 8.71305 8.44539 8.70824L8.44537 8.70823C8.29056 8.63438 7.10733 8.06993 7.09598 6.55631C7.08459 5.28585 8.03449 4.64216 8.18402 4.54083C8.19313 4.53466 8.19926 4.53051 8.20204 4.52834C7.59764 3.59623 6.65477 3.49546 6.3284 3.47026ZM11.1821 11.4627V1.64406H14.7178C16.5431 1.64406 17.8184 2.95405 17.8184 4.86866C17.8184 6.78327 16.5189 8.10586 14.6695 8.10586H12.6447V11.4627H11.1821ZM12.6445 2.92842H14.3308C15.6 2.92842 16.3253 3.63381 16.3253 4.87452C16.3253 6.11524 15.6 6.82692 14.3248 6.82692H12.6445V2.92842ZM22.6475 10.2849C22.2607 11.0533 21.4085 11.5382 20.4898 11.5382C19.1299 11.5382 18.181 10.6943 18.181 9.42206C18.181 8.16245 19.0997 7.43817 20.798 7.33111L22.6233 7.21774V6.67611C22.6233 5.87625 22.1217 5.44169 21.2271 5.44169C20.4898 5.44169 19.9519 5.83847 19.8431 6.44308H18.5255C18.5678 5.17087 19.7161 4.24506 21.2694 4.24506C22.9436 4.24506 24.0316 5.15828 24.0316 6.57534V11.4626H22.6777V10.2849H22.6475ZM20.8821 10.3733C20.1024 10.3733 19.6068 9.98286 19.6068 9.38454C19.6068 8.76733 20.0843 8.40834 20.9969 8.35166L22.6228 8.24459V8.79882C22.6228 9.71834 21.8733 10.3733 20.8821 10.3733ZM28.5223 11.8467C27.936 13.566 27.2651 14.1329 25.8387 14.1329C25.7299 14.1329 25.3673 14.1203 25.2827 14.0951V12.9173C25.3733 12.9299 25.597 12.9425 25.7118 12.9425C26.3585 12.9425 26.7212 12.6591 26.9448 11.9222L27.0777 11.4877L24.5997 4.33937H26.1288L27.8514 10.1399H27.8816L29.6041 4.33937H31.091L28.5223 11.8467Z" fill="black" style="fill:black;fill-opacity:1;"/>
    </symbol>

    <symbol viewBox="0 0 68 62" id="why-icon-1" xmlns="http://www.w3.org/2000/svg">
        <path d="M65.1337 27.9301C64.0304 25.6417 62.3832 23.6584 60.3362 22.1538C58.2892 20.6492 55.9048 19.669 53.3914 19.2991C47.7476 18.5755 37.9589 22.3483 33.3902 29.863C38.1386 31.4416 42.2618 34.4897 45.1635 38.5664C45.2367 38.6809 45.2866 38.8088 45.3101 38.9427C45.3337 39.0765 45.3305 39.2138 45.3007 39.3464C45.2709 39.479 45.2151 39.6044 45.1366 39.7154C45.058 39.8264 44.9583 39.9206 44.8431 39.9928C44.6104 40.1357 44.3312 40.1822 44.0647 40.1224C43.7983 40.0625 43.5658 39.9011 43.4166 39.6724C40.746 35.8575 36.8737 33.0479 32.4185 31.6926C32.4185 31.7029 32.4083 31.7029 32.4083 31.7132C28.9403 30.7286 25.2772 30.6538 21.772 31.4962C21.772 31.4948 21.7717 31.4935 21.7712 31.4922C21.7707 31.4909 21.77 31.4898 21.769 31.4888C21.768 31.4878 21.7669 31.4871 21.7656 31.4866C21.7643 31.4861 21.763 31.4858 21.7616 31.4858C19.9574 31.9127 18.1963 32.5044 16.5003 33.2534C16.376 33.3089 16.242 33.3393 16.106 33.3429C15.9699 33.3465 15.8345 33.3232 15.7074 33.2743C15.5804 33.2255 15.4642 33.1521 15.3656 33.0582C15.267 32.9644 15.1879 32.852 15.1328 32.7276C15.0778 32.6031 15.0478 32.469 15.0446 32.3329C15.0415 32.1969 15.0652 32.0615 15.1144 31.9346C15.1637 31.8077 15.2375 31.6918 15.3317 31.5935C15.4258 31.4952 15.5384 31.4165 15.6631 31.3618C17.3066 30.6362 19.0077 30.0484 20.7486 29.6046C18.853 25.2282 18.041 20.4591 18.3815 15.7019L22.2887 16.4772L20.6039 11.2469C20.5344 11.0297 20.5383 10.7957 20.6149 10.5809C20.6915 10.3661 20.8365 10.1825 21.0277 10.0582L23.5291 8.42502C23.7594 8.27695 24.0389 8.22614 24.3066 8.28372C24.5742 8.3413 24.8082 8.50258 24.9572 8.73225C25.1062 8.96191 25.1581 9.24126 25.1017 9.50914C25.0452 9.77702 24.8849 10.0116 24.6558 10.1616L22.8159 11.3606L24.2217 15.7433L26.289 14.5029C27.3125 13.896 28.1389 13.0064 28.6689 11.941C29.1988 10.8756 29.4097 9.67979 29.2762 8.49738C28.7499 5.49092 27.4375 2.67722 25.4724 0.341848C25.3552 0.207258 25.2047 0.105847 25.036 0.0477899C24.8673 -0.010267 24.6863 -0.0229274 24.5111 0.0110792L13.1409 2.07839C12.9183 2.11958 12.7151 2.23204 12.562 2.39882C1.75003 14.2962 0.954114 43.1868 0.923104 44.4168C0.922175 44.6518 0.998438 44.8806 1.14017 45.0681C1.62599 45.7089 13.451 60.9243 31.8707 62.0096H31.9327C31.9952 62.0079 32.0574 62.001 32.1188 61.989C35.6307 61.2177 38.8759 59.5309 41.525 57.0998C39.1438 56.0409 36.9375 54.6258 34.982 52.9031C34.7839 52.7156 34.6675 52.4576 34.6578 52.185C34.6481 51.9124 34.746 51.6468 34.9303 51.4457C35.12 51.2475 35.3795 51.1311 35.6537 51.1215C35.9279 51.1118 36.195 51.2096 36.3981 51.394C38.3644 53.1348 40.6117 54.5293 43.0445 55.5183L43.0548 55.508C48.5745 57.7303 57.4536 58.5159 64.4205 46.019C66.1409 43.004 67.0591 39.5981 67.0873 36.1269C67.0905 33.2789 66.4212 30.4704 65.1337 27.9301ZM15.9214 51.301C15.828 51.4434 15.7007 51.5604 15.551 51.6416C15.4013 51.7227 15.2338 51.7655 15.0635 51.7661C14.8575 51.7652 14.6564 51.7041 14.4846 51.5904C11.133 49.3383 8.07112 46.6825 5.36782 43.683C5.27755 43.5811 5.20822 43.4626 5.16378 43.334C5.11934 43.2054 5.10067 43.0693 5.10883 42.9334C5.11699 42.7976 5.15182 42.6648 5.21133 42.5424C5.27084 42.42 5.35387 42.3106 5.45568 42.2203C5.55748 42.1301 5.67607 42.0607 5.80467 42.0163C5.93327 41.9719 6.06937 41.9532 6.20518 41.9613C6.341 41.9695 6.47388 42.0043 6.59624 42.0638C6.71859 42.1234 6.82803 42.2064 6.9183 42.3082C9.49872 45.181 12.4257 47.7225 15.632 49.8745C15.8593 50.0255 16.0175 50.2605 16.0717 50.5279C16.126 50.7953 16.0719 51.0734 15.9214 51.301ZM60.9887 31.1861C60.8443 31.2588 60.6853 31.2977 60.5236 31.2998C60.3322 31.3015 60.1443 31.249 59.9815 31.1484C59.8187 31.0478 59.6878 30.9032 59.6037 30.7313C58.9581 29.3478 57.9838 28.1432 56.7659 27.2225C55.548 26.3019 54.1233 25.6931 52.6162 25.4493C52.4809 25.4334 52.3501 25.3909 52.2313 25.3242C52.1125 25.2576 52.0081 25.168 51.9241 25.0607C51.8401 24.9535 51.7782 24.8306 51.742 24.6993C51.7057 24.568 51.6958 24.4308 51.7129 24.2956C51.73 24.1605 51.7736 24.03 51.8414 23.9118C51.9091 23.7936 51.9996 23.69 52.1076 23.607C52.2156 23.524 52.339 23.4632 52.4707 23.4281C52.6023 23.393 52.7396 23.3844 52.8746 23.4027C54.7181 23.6846 56.464 24.4157 57.9583 25.5315C59.4526 26.6473 60.6496 28.1135 61.4436 29.801C61.5667 30.045 61.5879 30.3279 61.5026 30.5876C61.4174 30.8473 61.2325 31.0625 60.9887 31.1861Z" fill="currentColor"/>
    </symbol>

    <symbol viewBox="0 0 66 67" id="why-icon-2" xmlns="http://www.w3.org/2000/svg">
        <path fill-rule="evenodd" clip-rule="evenodd" d="M26.1776 5.78127C26.3843 5.988 26.591 6.09136 26.9011 6.09136C27.2112 6.09136 27.418 5.988 27.6247 5.78127C28.0382 5.36781 28.0382 4.74761 27.6247 4.33415L24.5237 1.23319C24.1103 0.81973 23.4901 0.81973 23.0766 1.23319C22.6632 1.64665 22.6632 2.26685 23.0766 2.68031L26.1776 5.78127ZM32.9995 17.0481C35.9971 17.0481 38.3745 14.6707 38.3745 11.6731C38.3745 8.67554 35.9971 6.29813 32.9995 6.29813C30.002 6.29813 27.6245 8.67554 27.6245 11.6731C27.6245 14.6707 30.002 17.0481 32.9995 17.0481ZM50.6753 24.5938C50.1585 24.9039 49.6417 25.0072 49.1248 25.0072V24.8005H40.959L41.9926 63.8726C41.9926 64.5962 41.6825 65.3197 41.1657 65.8365C40.5455 66.4567 39.6152 66.8702 38.6849 66.8702C37.0311 66.8702 35.584 65.7332 35.3772 64.2861L33.1032 46.8173L30.7258 64.3894C30.5191 65.8365 29.1753 66.9736 27.5215 66.9736C25.6609 66.9736 24.2138 65.6298 24.2138 64.0793L25.1441 24.9039H16.9782C16.358 24.9039 15.8412 24.8005 15.4277 24.4904L6.43494 18.5986C5.29792 17.875 4.88446 16.4279 5.50465 15.1875C6.02148 14.3606 6.95177 13.8438 7.88206 13.8438C8.29552 13.8438 8.81234 13.9471 9.22581 14.2572L16.4614 18.9087H27.7282C28.3484 18.9087 28.8652 19.1154 29.2787 19.4255L32.9998 22.9399L36.6176 19.3221C37.1345 19.012 37.6513 18.8053 38.1681 18.8053H49.5383L56.7739 14.2572C57.1873 13.9471 57.7042 13.8438 58.221 13.8438C58.4277 13.8438 58.6345 13.8438 58.8412 13.9471C59.5647 14.1539 60.1849 14.6707 60.495 15.2909C60.7018 15.7043 60.8051 16.1178 60.8051 16.5313C60.8051 17.3582 60.3917 18.1851 59.6681 18.7019L50.6753 24.5938ZM5.50451 39.6851L5.60787 39.7884L9.53576 43.0961C9.84585 43.5096 9.94922 44.1298 9.53576 44.5433C9.1223 44.8533 8.5021 44.9567 8.08864 44.5433L6.22807 42.8894V56.3269C6.22807 56.9471 5.8146 57.3606 5.19441 57.3606C4.57422 57.3606 4.16076 56.8437 4.16076 56.3269V42.8894L2.30018 44.5433C2.09345 44.75 1.78335 44.8533 1.57662 44.8533C1.36989 44.8533 1.0598 44.75 0.853065 44.5433C0.439603 44.1298 0.439603 43.5096 0.853065 43.0961L4.36749 39.7884C4.36749 39.6851 4.47085 39.6851 4.47085 39.6851C4.52254 39.6851 4.54838 39.6592 4.57422 39.6334C4.60006 39.6076 4.6259 39.5817 4.67758 39.5817C4.78095 39.4784 4.88432 39.4783 4.98768 39.4783C5.03936 39.4783 5.09105 39.5042 5.14273 39.53C5.19441 39.5559 5.24609 39.5817 5.29778 39.5817C5.34946 39.5817 5.3753 39.6076 5.40114 39.6334C5.42698 39.6592 5.45282 39.6851 5.50451 39.6851ZM51.6054 33.1731L51.7088 33.2765L55.6366 36.5842C55.9467 36.9976 56.0501 37.6178 55.6366 38.0313C55.2232 38.3414 54.603 38.4447 54.1895 38.0313L52.329 36.3774V49.8149C52.329 50.4351 51.9155 50.8486 51.2953 50.8486C50.6751 50.8486 50.2616 50.3317 50.2616 49.8149V36.3774L48.4011 38.0313C48.1943 38.238 47.8842 38.3414 47.6775 38.3414C47.4708 38.3414 47.1607 38.238 46.954 38.0313C46.5405 37.6178 46.5405 36.9976 46.954 36.5842L50.4684 33.2765C50.4684 33.1731 50.5717 33.1731 50.5717 33.1731C50.6234 33.1731 50.6493 33.1473 50.6751 33.1214C50.701 33.0956 50.7268 33.0697 50.7785 33.0697C50.8818 32.9664 50.9852 32.9664 51.0886 32.9664C51.1403 32.9664 51.1919 32.9922 51.2436 33.0181C51.2953 33.0439 51.347 33.0697 51.3987 33.0697C51.4503 33.0697 51.4762 33.0956 51.502 33.1214C51.5279 33.1473 51.5537 33.1731 51.6054 33.1731ZM65.3531 42.9928L61.8387 39.6852L61.7354 39.5818C61.6837 39.5818 61.6578 39.5559 61.632 39.5301C61.6061 39.5043 61.5803 39.4784 61.5286 39.4784C61.4769 39.4784 61.4253 39.4526 61.3736 39.4267C61.3219 39.4009 61.2702 39.3751 61.2185 39.3751C61.1152 39.3751 61.0118 39.3751 60.9084 39.4784C60.8568 39.4784 60.8309 39.5043 60.8051 39.5301C60.7792 39.5559 60.7534 39.5818 60.7017 39.5818C60.7017 39.5818 60.5983 39.5818 60.5983 39.6852L57.0839 42.9928C56.6704 43.4063 56.6704 44.0265 57.0839 44.44C57.4974 44.8534 58.1176 44.8534 58.531 44.44L60.3916 42.7861V56.2236C60.3916 56.7404 60.8051 57.2573 61.4253 57.2573C62.0455 57.2573 62.4589 56.8438 62.4589 56.2236V42.7861L64.3195 44.44C64.5262 44.6467 64.7329 44.7501 65.043 44.7501C65.3531 44.7501 65.5599 44.6467 65.7666 44.44C65.7666 44.0265 65.7666 43.4063 65.3531 42.9928ZM15.5308 33.1731L15.6342 33.2765L19.562 36.5842C19.8721 36.9976 19.9755 37.6178 19.562 38.0313C19.3553 38.238 19.1486 38.3414 18.8385 38.3414C18.5284 38.3414 18.3217 38.238 18.1149 38.0313L16.2544 36.3774V49.8149C16.2544 50.4351 15.7375 50.8486 15.2207 50.8486C14.6005 50.8486 14.187 50.3317 14.187 49.8149V36.3774L12.3265 38.0313C11.913 38.4447 11.2928 38.4447 10.8794 38.0313C10.4659 37.6178 10.4659 36.9976 10.8794 36.5842L14.3938 33.2765C14.3938 33.1731 14.4971 33.1731 14.4971 33.1731C14.5488 33.1731 14.5747 33.1473 14.6005 33.1214C14.6264 33.0956 14.6522 33.0697 14.7039 33.0697C14.8072 32.9664 14.9106 32.9664 15.014 32.9664C15.0657 32.9664 15.1173 32.9922 15.169 33.0181C15.2207 33.0439 15.2724 33.0697 15.3241 33.0697C15.3758 33.0697 15.4016 33.0956 15.4274 33.1214C15.4533 33.1473 15.4791 33.1731 15.5308 33.1731ZM19.8721 12.19H24.3169C24.8337 12.19 25.3505 11.7765 25.3505 11.1563C25.3505 10.5362 24.937 10.1227 24.3169 10.1227H19.8721C19.3553 10.1227 18.8385 10.5362 18.8385 11.1563C18.8385 11.7765 19.3553 12.19 19.8721 12.19ZM41.6825 12.19C41.0623 12.19 40.6489 11.6732 40.6489 11.1563C40.6489 10.6395 41.0623 10.2261 41.6825 10.1227H46.1273C46.7474 10.1227 47.1609 10.5362 47.1609 11.1563C47.1609 11.7765 46.6441 12.19 46.1273 12.19H41.6825ZM39.822 5.78127C39.6152 5.988 39.4085 6.09136 39.0984 6.09136C38.8917 6.09136 38.5816 5.988 38.3749 5.78127C37.9614 5.36781 37.9614 4.74761 38.3749 4.33415L41.4758 1.23319C41.8893 0.81973 42.5095 0.81973 42.9229 1.23319C43.3364 1.64665 43.3364 2.26685 42.9229 2.68031L39.822 5.78127Z" fill="currentColor"/>
    </symbol>

    <symbol viewBox="0 0 68 62" id="why-icon-3" xmlns="http://www.w3.org/2000/svg">
        <path fill-rule="evenodd" clip-rule="evenodd" d="M62.1422 5.11778C55.5486 -1.47415 44.8205 -1.47415 38.227 5.11778C36.9449 6.40064 32.6366 10.7099 31.4258 11.9206L32.8045 13.2993C35.2019 15.6967 39.1012 15.6967 41.497 13.2993L43.2179 11.5783C43.5471 11.9111 45.9322 14.2948 48.8731 17.234L48.874 17.2349L48.8765 17.2373C54.109 22.4668 61.0988 29.4525 61.4009 29.7759C68.6196 23.3098 69.0473 11.9772 62.1422 5.11778ZM29.3644 16.7395C33.0675 20.4426 38.7722 20.9519 43.0268 18.2691L57.6995 32.9421C58.7733 34.0159 58.7733 35.7645 57.6995 36.8399C56.6739 37.9077 54.8272 37.9082 53.8017 36.8399L48.3577 31.3959L42.9731 26.0112L39.5327 29.4515L50.3598 40.2802C52.8394 42.9707 49.1538 46.6564 46.4637 44.1779L35.635 33.3493L32.1947 36.7896C32.1947 36.7896 43.1061 47.701 43.1482 47.7415L43.1434 47.748C45.1889 50.1842 42.3195 53.5288 39.6074 51.9004L39.5522 51.9653C37.6814 49.8012 34.6198 48.8942 31.8881 49.6264C31.0889 46.385 27.8296 43.9277 24.5484 43.9979C24.3885 40.5078 21.4345 37.3451 17.9451 36.968C18.3716 30.9672 11.8914 26.8534 6.62175 29.7987C-0.614285 23.335 -1.05759 11.9862 5.85778 5.11784C12.7358 -1.80693 24.0982 -1.34692 30.5598 5.90437L24.5437 11.9205L29.3644 16.7395ZM8.39454 34.5007C9.47076 33.4268 11.2174 33.4256 12.2923 34.5007C13.3678 35.5761 13.3678 37.3247 12.2923 38.3984C12.0162 38.6744 10.2128 40.4779 10.2128 40.4779C7.52108 42.9552 3.83777 39.2705 6.31672 36.5802C6.45923 36.437 6.91488 35.9813 7.36666 35.5294L7.37533 35.5207C7.82564 35.0703 8.27008 34.6258 8.39454 34.5007ZM15.3227 42.2963C16.372 41.4995 17.9796 41.6183 18.8976 42.5736C19.5551 43.2215 19.8392 44.1872 19.647 45.0878C19.54 45.6085 19.2821 46.087 18.8976 46.4714L17.0631 48.3059C16.5006 48.9398 15.7326 49.3709 14.8702 49.357C13.3888 49.387 12.083 48.0842 12.1143 46.6011C12.1143 45.8647 12.3998 45.1721 12.9205 44.6531L15.2951 42.2784L15.3227 42.2963ZM24.5321 48.8589C23.7957 48.8589 23.1031 49.146 22.5824 49.6667L20.503 51.7461C20.4932 51.7559 20.4835 51.7656 20.4738 51.7769C19.4318 52.8064 19.4473 54.6294 20.503 55.6439C21.5784 56.7176 23.3269 56.7176 24.4007 55.6439L26.4818 53.5628C28.2053 51.8436 26.9664 48.8497 24.5321 48.8589ZM31.8789 55.0486C32.9538 53.9734 34.701 53.9747 35.7766 55.0486C36.8444 56.0707 36.8444 57.9219 35.7766 58.9464L33.6972 61.0258C32.6706 62.0928 30.8267 62.0934 29.7994 61.0258C28.7299 59.9999 28.7294 58.1538 29.7994 57.1281L31.8789 55.0486Z" fill="currentColor"/>
    </symbol>

    <symbol viewBox="0 0 68 68" id="why-icon-4" xmlns="http://www.w3.org/2000/svg">
        <path fill-rule="evenodd" clip-rule="evenodd" d="M34 0.923096C52.2673 0.923096 67.0769 15.7328 67.0769 34C67.0769 43.1336 63.3752 51.4029 57.389 57.389L61.4875 61.4875L46.4297 62.5017L47.4453 47.4453L51.5411 51.5411C56.0311 47.0525 58.8077 40.8506 58.8077 34C58.8077 20.2989 47.7011 9.19233 34 9.19233V0.923096ZM9.19233 34C9.19233 27.1495 11.969 20.9476 16.4576 16.4589H16.4589L20.5561 20.5561L21.5716 5.49961L6.51516 6.51517L10.611 10.611C4.62487 16.5972 0.923096 24.8664 0.923096 34C0.923096 52.2673 15.7328 67.077 34 67.077V58.8077C20.2989 58.8077 9.19233 47.7011 9.19233 34ZM35.9382 28.3602V18.4332H32.6253L22.3521 37.5804L23.5757 39.6399H32.062V49.5669H35.3748L45.648 30.4197L44.4244 28.3602H35.9382Z" fill="currentColor"/>
    </symbol>

    <symbol viewBox="0 0 68 68" id="why-icon-5" xmlns="http://www.w3.org/2000/svg">
        <path fill-rule="evenodd" clip-rule="evenodd" d="M42.0063 2.06373V10.1151C41.631 10.0729 41.2512 10.0478 40.8656 10.0478C40.4801 10.0478 40.1002 10.0729 39.725 10.1151V2.06373C39.725 1.43527 40.236 0.923096 40.8656 0.923096C41.4952 0.923096 42.0063 1.43527 42.0063 2.06373ZM56.6036 22.738C58.7171 25.3008 59.9661 28.4192 60.201 31.7189H47.6227L56.6036 22.738ZM50.9028 5.03041C51.0887 4.78285 51.1641 4.48981 51.1195 4.18294C51.0762 3.88292 50.9177 3.61495 50.6746 3.43354C50.1876 3.06853 49.4416 3.17577 49.0778 3.66056L44.2874 10.0479V10.6466C44.9102 10.868 45.5056 11.1462 46.0667 11.4781L50.9028 5.03041ZM46.5115 44.2652H21.5339C22.1121 37.8802 27.4889 32.8593 34.0221 32.8593C40.5553 32.8593 45.9321 37.8802 46.5115 44.2652ZM43.5402 41.5564C41.9629 37.659 38.2274 35.1406 34.0221 35.1406V37.4217C37.2922 37.4217 40.1984 39.3813 41.4256 42.4118L43.5402 41.5564ZM58.5005 44.2653H61.4786C66.5485 36.5823 65.7923 26.503 59.6742 19.6675L58.2188 21.1228C61.0008 24.4168 62.537 28.5354 62.537 32.8595C62.537 37.0226 61.0771 41.0467 58.5005 44.2653ZM55.4391 44.2652H48.7918C48.5124 40.6109 46.9132 37.3214 44.4564 34.8851L45.3415 34H60.1954C59.9147 37.8722 58.2244 41.5392 55.4391 44.2652ZM5.50774 36.2811C5.50774 38.1677 7.04297 39.7029 8.92952 39.7029C9.8443 39.7029 10.7031 39.3471 11.3475 38.7004L12.155 37.8929L18.5264 44.2654H19.2529C19.457 41.6067 20.3536 39.1408 21.7793 37.0569L19.6657 34.9445L20.4732 34.137C21.1188 33.4925 21.4758 32.6336 21.4758 31.719C21.4758 29.8324 19.9405 28.2972 18.054 28.2972C17.8122 28.2972 17.5601 28.3303 17.2635 28.401L16.5141 28.5789L16.0692 27.9516C15.2092 26.7391 13.8188 26.0161 12.3509 26.0161C9.83474 26.0161 7.78862 28.0623 7.78862 30.5784C7.78862 30.9729 7.85814 31.3871 8.0053 31.8797L8.28129 32.8014L7.41896 33.229C6.24124 33.8152 5.50774 34.9843 5.50774 36.2811ZM10.1145 48.8275C10.3266 47.5364 11.4421 46.5464 12.7914 46.5464H64.3778C65.7283 46.5464 66.8426 47.5364 67.0547 48.8275H10.1145ZM48.8501 20.5925V20.313C48.8501 15.9105 45.2675 12.329 40.866 12.329C36.4644 12.329 32.8819 15.9105 32.8819 20.313V20.5925C32.8819 21.0955 32.9298 21.5974 33.0234 22.0843L34.6465 30.609C37.6496 30.7345 40.4189 31.7518 42.7036 33.4103L47.4564 28.6575L48.7088 22.0854C48.8021 21.5974 48.8501 21.0955 48.8501 20.5925ZM44.2876 28.2971H37.4441V26.016H44.2876V28.2971ZM44.2876 23.7348H37.4441V21.4537H44.2876V23.7348ZM46.5689 19.1724H35.1631V16.8913H46.5689V19.1724ZM36.3034 67.077H34.5629C24.1186 67.077 14.6266 60.692 10.6152 51.1088H66.5528C62.5424 60.6931 53.0494 67.077 42.6062 67.077H36.3034ZM38.5845 62.5147H36.3034V64.7958H38.5845V62.5147ZM33.9937 64.789L34.0496 62.5078C27.0054 62.3378 20.4881 58.6948 16.6135 52.7662L14.7042 54.0139C18.9881 60.5722 26.1989 64.5997 33.9937 64.789ZM8.10711 51.0254C7.89612 50.4598 7.78888 49.8689 7.78888 49.2678C7.78888 49.1741 7.80126 49.0834 7.81362 48.9928C7.82111 48.9379 7.8286 48.8831 7.83332 48.8276H3.22646C1.96837 48.8276 0.945313 49.8507 0.945313 51.1088V64.7958C0.945313 66.0538 1.96837 67.0769 3.22646 67.0769H23.5345C16.5576 64.0955 10.8639 58.3754 8.10711 51.0254ZM8.60417 46.5464H3.22633C1.96824 46.5464 0.945184 45.5233 0.945313 44.2652V37.4217C0.945313 36.1636 1.96837 35.1405 3.22646 35.1405H3.34959C3.27439 35.5112 3.22646 35.8923 3.22646 36.2812C3.22646 39.4258 5.78475 41.9841 8.92938 41.9841C10.0654 41.9841 11.1501 41.6545 12.0751 41.0397L15.3006 44.2652H12.7912C11.037 44.2652 9.49725 45.1765 8.60417 46.5464ZM35.6647 11.478C36.2258 11.146 36.8212 10.8677 37.444 10.6465V10.0489L32.6524 3.66043C32.2885 3.17565 31.5391 3.06841 31.0567 3.43225C30.8126 3.61469 30.6541 3.8828 30.6107 4.18501C30.5674 4.48955 30.6414 4.78156 30.8262 5.02899L35.6647 11.478ZM4.38648 32.8594H3.22646C1.96837 32.8594 0.945313 31.8363 0.945313 30.5782V25.3372C0.945313 24.6586 1.24533 24.0198 1.76655 23.5853L7.06118 19.1722H19.9224L25.2171 23.584C25.7383 24.0197 26.0383 24.6585 26.0383 25.3371V32.9311C25.0049 33.5949 24.0616 34.3843 23.2244 35.2762L22.8126 34.8644C23.4274 33.9394 23.757 32.8547 23.757 31.7187C23.757 28.5741 21.1987 26.0158 18.0541 26.0158C17.8625 26.0158 17.6675 26.0272 17.4679 26.05C16.1756 24.589 14.3107 23.7346 12.3512 23.7346C8.57691 23.7346 5.5076 26.8041 5.5076 30.5782C5.5076 30.9295 5.54068 31.2889 5.60916 31.6641C5.13471 32.0005 4.72978 32.4088 4.38648 32.8594ZM19.1947 11.1884C19.1947 10.5599 18.6837 10.0478 18.0541 10.0478H8.9294C8.29977 10.0478 7.78876 10.5599 7.78876 11.1884V12.329H19.1946V11.1884H19.1947ZM19.1946 14.6102H7.78876V16.8913H19.1946V14.6102Z" fill="currentColor"/>
    </symbol>

    <symbol viewBox="0 0 62 54" id="why-icon-6" xmlns="http://www.w3.org/2000/svg">
        <path fill-rule="evenodd" clip-rule="evenodd" d="M46.52 0.53864H46.5123C44.5048 0.522146 42.5138 0.901619 40.6531 1.65535C38.7924 2.40908 37.0986 3.52228 35.6686 4.93126L31.7875 8.85749C31.6853 8.9618 31.5633 9.04475 31.4288 9.10154C31.2942 9.15832 31.1497 9.1878 31.0036 9.18826C30.8576 9.1878 30.713 9.15832 30.5785 9.10154C30.4439 9.04475 30.3219 8.9618 30.2197 8.85749L26.3475 4.93126C24.9149 3.52169 23.2186 2.40824 21.3555 1.65454C19.4925 0.900829 17.4991 0.521641 15.4894 0.53864H15.4828C13.4741 0.521851 11.4819 0.90116 9.61989 1.65488C7.75792 2.4086 6.06277 3.52194 4.63138 4.93126C1.74927 7.86957 0.134766 11.8212 0.134766 15.9371C0.134766 20.0529 1.74927 24.0045 4.63138 26.9428L7.84646 30.1976V29.2053C7.84646 28.3281 8.19495 27.4867 8.81526 26.8664C9.43557 26.2461 10.2769 25.8976 11.1542 25.8976H13.3593C13.7357 25.9013 14.1087 25.9699 14.4618 26.1005V25.8976C14.4618 25.0204 14.8103 24.179 15.4306 23.5587C16.051 22.9384 16.8923 22.5899 17.7695 22.5899H19.9747C20.8519 22.5899 21.6932 22.9384 22.3136 23.5587C22.9339 24.179 23.2824 25.0204 23.2824 25.8976V35.8207H38.7183V25.8976C38.7183 25.0204 39.0667 24.179 39.6871 23.5587C40.3074 22.9384 41.1487 22.5899 42.0259 22.5899H44.2311C45.1083 22.5899 45.9497 22.9384 46.57 23.5587C47.1903 24.179 47.5388 25.0204 47.5388 25.8976V26.1005C47.8919 25.9699 48.2649 25.9013 48.6413 25.8976H50.8465C51.7237 25.8976 52.565 26.2461 53.1854 26.8664C53.8057 27.4867 54.1542 28.3281 54.1542 29.2053V30.2131L57.3825 26.9428C60.2557 23.9999 61.8641 20.05 61.8641 15.9371C61.8641 11.8241 60.2557 7.87421 57.3825 4.93126C55.9491 3.52156 54.252 2.40806 52.3882 1.65436C50.5244 0.900668 48.5304 0.521541 46.52 0.53864ZM19.9745 24.795H17.7694C17.477 24.795 17.1965 24.9111 16.9898 25.1179C16.783 25.3247 16.6668 25.6051 16.6668 25.8975V52.3591C16.6668 52.6515 16.783 52.9319 16.9898 53.1387C17.1965 53.3455 17.477 53.4616 17.7694 53.4616H19.9745C20.267 53.4616 20.5474 53.3455 20.7542 53.1387C20.9609 52.9319 21.0771 52.6515 21.0771 52.3591V25.8975C21.0771 25.6051 20.9609 25.3247 20.7542 25.1179C20.5474 24.9111 20.267 24.795 19.9745 24.795ZM23.2823 45.8187L30.7037 53.336C30.7408 53.3775 30.7866 53.4102 30.8379 53.432C30.8892 53.4537 30.9446 53.4638 31.0003 53.4616C31.1168 53.4606 31.2282 53.4134 31.3101 53.3304L38.7182 45.8286V42.436H23.2823V45.8187ZM42.0257 24.795H44.2308C44.5233 24.795 44.8037 24.9111 45.0105 25.1179C45.2172 25.3247 45.3334 25.6051 45.3334 25.8975V52.3591C45.3334 52.6515 45.2172 52.9319 45.0105 53.1387C44.8037 53.3455 44.5233 53.4616 44.2308 53.4616H42.0257C41.7333 53.4616 41.4529 53.3455 41.2461 53.1387C41.0393 52.9319 40.9231 52.6515 40.9231 52.3591V25.8975C40.9231 25.6051 41.0393 25.3247 41.2461 25.1179C41.4529 24.9111 41.7333 24.795 42.0257 24.795ZM54.1575 38.0257H57.4651V40.2308H54.1575V38.0257ZM48.6446 28.1027H50.8497C51.4586 28.1027 51.9523 28.5963 51.9523 29.2053V49.0514C51.9523 49.6603 51.4586 50.154 50.8497 50.154H48.6446C48.0356 50.154 47.542 49.6603 47.542 49.0514V29.2053C47.542 28.5963 48.0356 28.1027 48.6446 28.1027ZM4.54207 38.0257H7.84976V40.2308H4.54207V38.0257ZM38.7216 38.0257H23.2857V40.2308H38.7216V38.0257ZM11.1573 28.1027H13.3625C13.9714 28.1027 14.465 28.5963 14.465 29.2053V49.0514C14.465 49.6603 13.9714 50.154 13.3625 50.154H11.1573C10.5484 50.154 10.0548 49.6603 10.0548 49.0514V29.2053C10.0548 28.5963 10.5484 28.1027 11.1573 28.1027Z" fill="currentColor"/>
    </symbol>

    <symbol viewBox="0 0 90 24" id="paypal-2" xmlns="http://www.w3.org/2000/svg">
        <g clip-path="url(#clip0_179_3199)">
        <path d="M28.7792 4.79956C28.5939 4.79956 28.4366 4.93482 28.4077 5.11899L26.2636 18.7956C26.2558 18.8456 26.2589 18.8967 26.2726 18.9453C26.2863 18.994 26.3103 19.0391 26.343 19.0775C26.3756 19.1159 26.4162 19.1468 26.4619 19.1679C26.5075 19.1891 26.5572 19.2001 26.6075 19.2001H29.1502C29.3351 19.2001 29.4927 19.0646 29.5217 18.8806L30.1515 14.8644C30.1802 14.6805 30.3378 14.545 30.523 14.545H32.8347C35.5358 14.545 37.8287 12.5626 38.2475 9.87648C38.6698 7.16761 36.5659 4.80544 33.5839 4.79956H28.7792ZM31.2509 7.85272H33.1005C34.6232 7.85272 35.1191 8.75647 34.9623 9.75593C34.8055 10.7575 34.0354 11.4953 32.5624 11.4953H30.6798L31.2509 7.85272ZM43.4189 8.7824C42.7769 8.78481 42.0381 8.91712 41.2087 9.26462C39.3062 10.0623 38.3926 11.7107 38.0046 12.9125C38.0046 12.9125 36.7697 16.5792 39.5598 18.5936C39.5598 18.5936 42.1474 20.5329 45.0602 18.4741L45.01 18.7956C45.0022 18.8456 45.0052 18.8966 45.0189 18.9452C45.0326 18.9938 45.0565 19.0389 45.0892 19.0773C45.1218 19.1157 45.1623 19.1466 45.2079 19.1678C45.2535 19.189 45.3031 19.2 45.3533 19.2001H47.7671C47.9523 19.2001 48.1097 19.0646 48.1386 18.8806L49.6069 9.51482C49.6148 9.46486 49.6118 9.41379 49.5982 9.3651C49.5845 9.31642 49.5606 9.27128 49.5279 9.2328C49.4953 9.19432 49.4548 9.1634 49.4091 9.14217C49.3635 9.12095 49.3138 9.10992 49.2636 9.10985H46.8498C46.6645 9.10985 46.5069 9.24538 46.4782 9.42928L46.3993 9.93342C46.3993 9.93342 45.3454 8.77519 43.4189 8.7824ZM43.4979 11.7407C43.7751 11.7407 44.0286 11.7792 44.2561 11.8527C45.2975 12.1889 45.888 13.1953 45.7171 14.2862C45.5064 15.6294 44.4113 16.6184 43.0068 16.6184C42.7299 16.6184 42.4763 16.5802 42.2486 16.5067C41.2074 16.1704 40.6132 15.164 40.7841 14.0732C40.9948 12.73 42.0934 11.7407 43.4979 11.7407Z" fill="#001C64" style="fill:#001C64;fill:color(display-p3 0.0000 0.1098 0.3922);fill-opacity:1;"/>
        <path d="M63.5389 4.79956C63.3537 4.79956 63.1964 4.93482 63.1674 5.11899L61.0234 18.7956C61.0156 18.8456 61.0186 18.8967 61.0323 18.9453C61.046 18.994 61.0701 19.0391 61.1027 19.0775C61.1354 19.1159 61.176 19.1468 61.2216 19.1679C61.2673 19.1891 61.317 19.2001 61.3672 19.2001H63.9099C64.0949 19.2001 64.2525 19.0646 64.2814 18.8806L64.9113 14.8644C64.94 14.6805 65.0976 14.545 65.2828 14.545H67.5945C70.2956 14.545 72.5882 12.5626 73.0067 9.87648C73.4293 7.16761 71.3256 4.80544 68.3437 4.79956H63.5389ZM66.0107 7.85272H67.8603C69.383 7.85272 69.8789 8.75647 69.7221 9.75593C69.5653 10.7575 68.7954 11.4953 67.3221 11.4953H65.4396L66.0107 7.85272ZM78.1785 8.7824C77.5364 8.78481 76.7976 8.91712 75.9682 9.26462C74.0657 10.0623 73.1521 11.7107 72.7641 12.9125C72.7641 12.9125 71.5297 16.5792 74.3198 18.5936C74.3198 18.5936 76.9069 20.5329 79.82 18.4741L79.7697 18.7956C79.762 18.8456 79.765 18.8967 79.7787 18.9453C79.7924 18.994 79.8164 19.0391 79.8491 19.0775C79.8818 19.1159 79.9224 19.1468 79.968 19.1679C80.0137 19.1891 80.0634 19.2001 80.1136 19.2001H82.5272C82.7124 19.2001 82.8697 19.0646 82.8987 18.8806L84.3675 9.51482C84.3753 9.46482 84.3723 9.4137 84.3587 9.36498C84.345 9.31625 84.321 9.27109 84.2883 9.2326C84.2557 9.1941 84.2151 9.1632 84.1693 9.14201C84.1236 9.12082 84.0739 9.10985 84.0236 9.10985H81.6098C81.4246 9.10985 81.267 9.24538 81.2383 9.42928L81.1593 9.93342C81.1593 9.93342 80.1049 8.77519 78.1785 8.7824ZM78.2574 11.7407C78.5346 11.7407 78.7881 11.7792 79.0156 11.8527C80.057 12.1889 80.6475 13.1953 80.4766 14.2862C80.2659 15.6294 79.1708 16.6184 77.7663 16.6184C77.4894 16.6184 77.2359 16.5802 77.0081 16.5067C75.9669 16.1704 75.3727 15.164 75.5436 14.0732C75.7543 12.73 76.8529 11.7407 78.2574 11.7407Z" fill="#0070E0"/>
        <path d="M50.7522 9.10989C50.5609 9.10989 50.4248 9.2978 50.4833 9.48091L53.1296 17.7409L50.7368 21.6334C50.6207 21.8224 50.7557 22.0664 50.9765 22.0664H53.8046C53.8855 22.0663 53.965 22.0453 54.0354 22.0053C54.1059 21.9653 54.1648 21.9078 54.2067 21.8381L61.5974 9.54025C61.7109 9.35126 61.5754 9.10962 61.3558 9.10962H58.528C58.4464 9.10969 58.3661 9.13114 58.2952 9.17187C58.2243 9.2126 58.1651 9.2712 58.1235 9.34191L55.2144 14.2822L53.7377 9.37853C53.6896 9.21895 53.5431 9.10962 53.3776 9.10962L50.7522 9.10989Z" fill="#001C64" />
        <path d="M87.11 4.79956C86.925 4.79956 86.7674 4.93508 86.7385 5.11899L84.5939 18.7951C84.586 18.8451 84.589 18.8962 84.6027 18.9449C84.6163 18.9937 84.6403 19.0388 84.673 19.0773C84.7057 19.1158 84.7463 19.1467 84.792 19.1679C84.8377 19.1891 84.8874 19.2001 84.9378 19.2001H87.4804C87.6654 19.2001 87.823 19.0646 87.852 18.8806L89.996 5.20399C90.0038 5.15408 90.0008 5.10306 89.9871 5.05444C89.9734 5.00582 89.9494 4.96076 89.9168 4.92233C89.8842 4.88391 89.8437 4.85305 89.7981 4.83185C89.7525 4.81066 89.7029 4.79964 89.6527 4.79956H87.11Z" fill="#0070E0" />
        <path d="M7.58156 4.79956C7.41777 4.7997 7.25939 4.85858 7.13489 4.96564C7.01039 5.07269 6.92791 5.22089 6.9023 5.38362L5.77368 12.5837C5.8263 12.2475 6.11436 11.9997 6.45292 11.9997H9.76016C13.0886 11.9997 15.913 9.55732 16.4291 6.24755C16.4675 6.00045 16.4893 5.75102 16.4942 5.50097C15.6483 5.05484 14.6547 4.79956 13.5659 4.79956H7.58156Z" fill="#001C64" />
        <path d="M16.4941 5.50122C16.4891 5.75127 16.4674 6.0007 16.429 6.2478C15.9129 9.55757 13.0883 11.9999 9.76004 11.9999H6.4528C6.11451 11.9999 5.82618 12.2475 5.77356 12.584L4.73581 19.2003L4.08579 23.351C4.07311 23.4312 4.07786 23.5132 4.09974 23.5914C4.12162 23.6696 4.16011 23.742 4.21254 23.8038C4.26496 23.8655 4.33008 23.9151 4.4034 23.9491C4.47672 23.9831 4.55649 24.0006 4.63722 24.0006H8.22694C8.39074 24.0005 8.54911 23.9416 8.67361 23.8345C8.79811 23.7275 8.88057 23.5793 8.90619 23.4165L9.85171 17.3843C9.87734 17.2214 9.95989 17.0732 10.0845 16.9661C10.2091 16.859 10.3676 16.8002 10.5315 16.8002H12.645C15.9735 16.8002 18.7979 14.3578 19.3139 11.0481C19.6804 8.69899 18.5042 6.56135 16.4941 5.50122Z" fill="#0070E0"/>
        <path d="M3.50311 0.000244141C3.16481 0.000244141 2.87649 0.247769 2.82387 0.583771L0.00693289 18.5509C-0.0464824 18.892 0.215552 19.2005 0.558898 19.2005H4.73619L5.7734 12.5842L6.90202 5.38403C6.92763 5.22131 7.01011 5.0731 7.13461 4.96605C7.25912 4.85899 7.41749 4.80011 7.58128 4.79997H13.5656C14.6547 4.79997 15.6481 5.05551 16.4939 5.50138C16.5519 2.48805 14.0799 0.000244141 10.6812 0.000244141H3.50311Z" fill="#001C64"/>
        </g>
        <defs>
        <clipPath id="clip0_179_3199">
        <rect width="90" height="24" fill="white" style="fill:white;fill-opacity:1;"/>
        </clipPath>
        </defs>
    </symbol>

    <symbol viewBox="0 0 70 29" id="apple-pay-2" xmlns="http://www.w3.org/2000/svg">
        <path d="M12.7969 3.73882C11.9766 4.71836 10.6641 5.49096 9.3516 5.38059C9.18754 4.05614 9.83012 2.64891 10.5821 1.77973C11.4024 0.772597 12.8379 0.0551855 14 0C14.1368 1.37964 13.6036 2.73168 12.7969 3.73882ZM13.9864 5.64272C12.086 5.53235 10.459 6.73264 9.55668 6.73264C8.64066 6.73264 7.2598 5.69791 5.7559 5.7255C3.80082 5.75309 1.98246 6.8706 0.984413 8.65033C-1.06637 12.2098 0.451209 17.48 2.43363 20.3773C3.40433 21.8121 4.56644 23.3849 6.09769 23.3297C7.54691 23.2745 8.12113 22.3777 9.87113 22.3777C11.6348 22.3777 12.1407 23.3297 13.6719 23.3021C15.2578 23.2745 16.2559 21.8673 17.2266 20.4324C18.334 18.8045 18.7852 17.2179 18.8125 17.1351C18.7852 17.1075 15.75 15.9348 15.7227 12.403C15.6953 9.45052 18.1153 8.04329 18.2246 7.96051C16.8575 5.91865 14.7246 5.69791 13.9864 5.64272ZM24.9649 1.64177V23.1503H28.2735V15.7969H32.8536C37.0371 15.7969 39.9766 12.8996 39.9766 8.70552C39.9766 4.51142 37.0918 1.64177 32.9629 1.64177H24.9649ZM28.2735 4.45623H32.0879C34.959 4.45623 36.5996 6.00143 36.5996 8.71932C36.5996 11.4372 34.959 12.9962 32.0743 12.9962H28.2735V4.45623ZM46.0196 23.3159C48.0977 23.3159 50.0254 22.2536 50.9004 20.5704H50.9688V23.1503H54.0313V12.4443C54.0313 9.34015 51.5704 7.33968 47.7832 7.33968C44.2696 7.33968 41.6719 9.36774 41.5762 12.1546H44.5567C44.8028 10.8302 46.0196 9.96099 47.6875 9.96099C49.711 9.96099 50.8457 10.9129 50.8457 12.6651V13.8516L46.7168 14.0999C42.875 14.3344 40.7969 15.921 40.7969 18.6803C40.7969 21.4672 42.9434 23.3159 46.0196 23.3159ZM46.9082 20.7636C45.1446 20.7636 44.0235 19.9082 44.0235 18.5975C44.0235 17.2455 45.1036 16.4591 47.168 16.3349L50.8457 16.1004V17.3145C50.8457 19.3287 49.1504 20.7636 46.9082 20.7636ZM58.1192 29C61.3457 29 62.8633 27.7583 64.1895 23.9919L70 7.54662H66.6368L62.7403 20.2531H62.6719L58.7754 7.54662H55.3164L60.9219 23.2055L60.6211 24.1575C60.1153 25.7716 59.295 26.3925 57.8321 26.3925C57.5723 26.3925 57.0664 26.3649 56.8614 26.3373V28.9172C57.0528 28.9724 57.8731 29 58.1192 29Z" fill="currentColor"/>
    </symbol>




    <symbol viewBox="" id="id" xmlns="http://www.w3.org/2000/svg">
        
    </symbol>
</svg>
